# xmcd
#
# Track frame offsets:
#	150
#	19845
#	40682
#	58112
#	75457
#	93742
#	108782
#	123537
#	139672
#	155497
#	171182
#
# Disc length: 2522 seconds
#
# Revision: 2
# Processed by: cddbd v1.5.2PL0 Copyright (c) Steve Scherf et al.
# Submitted via: audiograbber 1.83.01
#
DISCID=8909d80b
DTITLE=Volkan KONAK - Mora CD1
DYEAR=2007
DGENRE=Other
TTITLE0=Gardas
TTITLE1=Aysem Destani II
TTITLE2=Bu Gaybana Sevdaluk
TTITLE3=Dertliyim Kederliyim
TTITLE4=Kavga
TTITLE5=Nefesim Nefesine
TTITLE6=Eledim Eledim
TTITLE7=O Vay Ben Aglarum
TTITLE8=Oy Trabzon
TTITLE9=Karima Mektup
TTITLE10=Kolbasti Havasi
EXTD=
EXTT0=
EXTT1=
EXTT2=
EXTT3=
EXTT4=
EXTT5=
EXTT6=
EXTT7=
EXTT8=
EXTT9=
EXTT10=
PLAYORDER=
